<?xml version="1.0" encoding="iso-8859-1"?>
<!-- Generator: Adobe Illustrator 18.0.0, SVG Export Plug-In . SVG Version: 6.00 Build 0)  -->
<!DOCTYPE svg PUBLIC "-//W3C//DTD SVG 1.1//EN" "http://www.w3.org/Graphics/SVG/1.1/DTD/svg11.dtd">
<svg version="1.1" id="Capa_1" xmlns="http://www.w3.org/2000/svg" xmlns:xlink="http://www.w3.org/1999/xlink" x="0px" y="0px"
	 viewBox="0 0 60 60" style="enable-background:new 0 0 60 60;" xml:space="preserve">
<path d="M55.894,37.042C58.582,33.27,60,28.912,60,24.414C60,11.503,48.337,1,34,1C24.13,1,15.002,6.142,10.656,14.114
	C4.201,18.379,0,25.254,0,33c0,4.499,1.418,8.856,4.106,12.627c-0.51,5.578-1.86,9.712-3.813,11.666
	c-0.304,0.304-0.38,0.768-0.188,1.153C0.276,58.789,0.625,59,1,59c0.046,0,0.093-0.003,0.14-0.01
	c0.349-0.049,8.432-1.213,14.317-4.585c3.33,1.333,6.874,2.009,10.544,2.009c8.525,0,16.104-3.714,20.848-9.439
	c5.512,2.487,11.738,3.391,12.012,3.43c0.047,0.006,0.094,0.01,0.14,0.01c0.375,0,0.724-0.211,0.895-0.554
	c0.192-0.385,0.116-0.849-0.188-1.153C57.753,46.753,56.403,42.619,55.894,37.042z M26,54.414c-2.891,0-5.695-0.458-8.365-1.348
	c3.336-2.091,3.338-2.255,3.335-2.821c-0.002-0.349-0.191-0.681-0.49-0.86c-0.449-0.27-1.025-0.146-1.326,0.272
	c-0.492,0.385-2.502,1.673-4.294,2.779l0,0c-3.701,2.235-8.645,3.517-11.559,4.127c1.797-3.174,2.535-7.623,2.83-11.136
	c0.02-0.241-0.048-0.482-0.192-0.677C3.362,41.255,2,37.192,2,33c0-7.217,4.026-13.606,10.175-17.488
	c0.391-0.247,0.788-0.484,1.193-0.709c0.086-0.048,0.171-0.097,0.258-0.144c0.423-0.228,0.854-0.44,1.29-0.643
	c0.157-0.073,0.314-0.146,0.474-0.217c0.44-0.194,0.884-0.378,1.335-0.548c0.159-0.06,0.322-0.113,0.483-0.17
	c0.353-0.124,0.709-0.241,1.068-0.35c0.169-0.052,0.338-0.106,0.509-0.154c0.467-0.132,0.94-0.249,1.416-0.355
	c0.171-0.038,0.344-0.072,0.517-0.107c0.421-0.084,0.844-0.16,1.27-0.224c0.111-0.017,0.22-0.038,0.332-0.053
	c0.521-0.072,1.047-0.124,1.576-0.165c0.148-0.012,0.297-0.021,0.446-0.03c0.537-0.033,1.076-0.055,1.619-0.056
	c0.014,0,0.027-0.001,0.041-0.001c12.406,0,22.645,8.443,23.876,19.227C49.958,31.533,50,32.262,50,33
	c0,0.483-0.025,0.964-0.061,1.443c-0.009,0.125-0.02,0.249-0.032,0.374c-0.042,0.443-0.095,0.884-0.167,1.321
	c-0.006,0.037-0.01,0.075-0.016,0.113c-0.078,0.457-0.179,0.909-0.29,1.359c-0.034,0.138-0.07,0.275-0.107,0.411
	c-0.107,0.397-0.225,0.791-0.357,1.181c-0.034,0.101-0.069,0.201-0.105,0.301c-0.137,0.382-0.288,0.76-0.449,1.136
	c-0.064,0.148-0.129,0.296-0.196,0.443c-0.18,0.393-0.369,0.783-0.576,1.166c-0.058,0.108-0.122,0.214-0.183,0.322
	c-0.181,0.321-0.371,0.639-0.57,0.952c-0.087,0.137-0.174,0.274-0.264,0.409c-0.247,0.369-0.504,0.733-0.777,1.091
	C41.529,50.685,34.244,54.414,26,54.414z M48.094,45.343c0.043-0.062,0.079-0.128,0.122-0.19c0.23-0.339,0.45-0.684,0.661-1.035
	c0.123-0.205,0.238-0.414,0.354-0.622c0.12-0.214,0.236-0.429,0.348-0.646c0.108-0.209,0.216-0.418,0.317-0.629
	c0.145-0.303,0.281-0.611,0.411-0.921c0.104-0.247,0.202-0.496,0.297-0.746c0.106-0.279,0.208-0.56,0.303-0.844
	c0.063-0.191,0.124-0.382,0.181-0.574c0.094-0.312,0.18-0.628,0.26-0.945c0.036-0.143,0.077-0.284,0.11-0.428
	c0.104-0.449,0.19-0.903,0.265-1.361c0.023-0.142,0.04-0.284,0.06-0.427c0.05-0.356,0.092-0.714,0.124-1.074
	c0.013-0.145,0.027-0.289,0.037-0.435C51.977,33.981,52,33.493,52,33C52,20.089,40.337,9.586,26,9.586
	c-0.056,0-0.11,0.004-0.166,0.004c-0.419,0.002-0.836,0.012-1.25,0.032c-0.194,0.009-0.386,0.027-0.579,0.04
	c-0.274,0.019-0.548,0.037-0.82,0.064c-0.229,0.022-0.456,0.051-0.684,0.079c-0.229,0.028-0.458,0.056-0.686,0.089
	c-0.25,0.036-0.499,0.078-0.747,0.12c-0.196,0.034-0.392,0.07-0.586,0.108c-0.268,0.052-0.535,0.107-0.8,0.167
	c-0.163,0.037-0.323,0.077-0.485,0.116c-0.289,0.07-0.577,0.142-0.863,0.221c-0.102,0.028-0.202,0.06-0.303,0.09
	c-1.064,0.309-2.104,0.679-3.118,1.112c-0.07,0.03-0.141,0.058-0.211,0.088c-0.091,0.04-0.184,0.074-0.274,0.115
	C18.882,6.451,26.186,3,34,3c13.233,0,24,9.606,24,21.414c0,4.191-1.362,8.254-3.939,11.75c-0.144,0.195-0.212,0.436-0.191,0.677
	c0.294,3.513,1.031,7.961,2.829,11.135C54.512,47.517,51.185,46.679,48.094,45.343z"/>
<g>
</g>
<g>
</g>
<g>
</g>
<g>
</g>
<g>
</g>
<g>
</g>
<g>
</g>
<g>
</g>
<g>
</g>
<g>
</g>
<g>
</g>
<g>
</g>
<g>
</g>
<g>
</g>
<g>
</g>
</svg>
